<?xml version="1.0" encoding="UTF-8"?>
<svg version="1.1" xmlns="http://www.w3.org/2000/svg" width="280" height="280">
<path d="M0 0 C11.075625 -0.1546875 11.075625 -0.1546875 22.375 -0.3125 C24.6854834 -0.35802002 26.9959668 -0.40354004 29.37646484 -0.45043945 C31.23794103 -0.46506251 33.09943339 -0.47779886 34.9609375 -0.48828125 C35.90300049 -0.51386108 36.84506348 -0.53944092 37.81567383 -0.5657959 C45.71338379 -0.57091232 52.25802038 1.55900974 58.14950562 6.97660828 C66.20179957 15.52608043 68.52480134 26.11695298 68.3125 37.5546875 C67.39228657 47.70004052 63.98709619 56.63274436 56.33984375 63.48828125 C49.0241984 69.13749258 41.81154354 70.44858946 32.8125 70.29296875 C31.97525391 70.28994751 31.13800781 70.28692627 30.27539062 70.28381348 C27.1834662 70.26825856 24.09171915 70.22637585 21 70.1875 C14.07 70.125625 7.14 70.06375 0 70 C0 46.9 0 23.8 0 0 Z " fill="#7D0DC3" transform="translate(147,105)"/>
<path d="M0 0 C19.8 0 39.6 0 60 0 C60 6.27 60 12.54 60 19 C47.46 19 34.92 19 22 19 C22 21.64 22 24.28 22 27 C34.54 27 47.08 27 60 27 C60 32.61 60 38.22 60 44 C47.46 44 34.92 44 22 44 C22 46.97 22 49.94 22 53 C34.54 53 47.08 53 60 53 C60 58.94 60 64.88 60 71 C40.2 71 20.4 71 0 71 C0 47.57 0 24.14 0 0 Z " fill="#7D0DC3" transform="translate(83,104)"/>
<path d="M0 0 C20.46 0 40.92 0 62 0 C62 6.27 62 12.54 62 19 C55.4 19 48.8 19 42 19 C42 36.16 42 53.32 42 71 C34.74 71 27.48 71 20 71 C20 53.51 20 36.02 20 18 C13.4 18 6.8 18 0 18 C0 12.06 0 6.12 0 0 Z " fill="#7D0DC3" transform="translate(18,104)"/>
<path d="M0 0 C5.61 0 11.22 0 17 0 C19.475 4.455 19.475 4.455 22 9 C24.47193291 6.03368051 26.25618453 3.48763093 28 0 C33.28 0 38.56 0 44 0 C41.75275632 5.61810921 41.75275632 5.61810921 39.65234375 8.4453125 C39.21212891 9.04730469 38.77191406 9.64929688 38.31835938 10.26953125 C37.86267578 10.88183594 37.40699219 11.49414062 36.9375 12.125 C33.41884642 16.75108918 33.41884642 16.75108918 31 22 C32.17418688 24.37103453 32.17418688 24.37103453 33.96484375 26.8515625 C34.91713867 28.25148437 34.91713867 28.25148437 35.88867188 29.6796875 C36.56478516 30.65164062 37.24089844 31.62359375 37.9375 32.625 C39.26081923 34.55351891 40.58252688 36.48314501 41.90234375 38.4140625 C42.49523193 39.2695166 43.08812012 40.1249707 43.69897461 41.00634766 C45 43 45 43 45 44 C33.7206187 45.20563458 33.7206187 45.20563458 29 44 C25.86269512 41.08751827 24.37805655 38.01933161 23 34 C21.17696667 36.36994333 19.71307695 38.55373466 18.328125 41.2265625 C16 44 16 44 12.109375 44.5859375 C10.65509063 44.5462752 9.20138372 44.47500701 7.75 44.375 C7.00492188 44.34792969 6.25984375 44.32085937 5.4921875 44.29296875 C3.66021007 44.22250808 1.82972849 44.11488993 0 44 C1.91430945 40.42107363 3.90168923 37.13430251 6.3046875 33.8515625 C6.71533447 33.29041748 7.12598145 32.72927246 7.54907227 32.15112305 C8.38152484 31.0220439 9.22816964 29.90327194 10.08959961 28.79614258 C11.99228021 26.19585179 12.98077018 24.38993802 13.140625 21.1484375 C11.49121796 16.59562218 8.81771876 13.04863898 5.9375 9.1875 C4.81989344 7.66141522 3.70391307 6.1341377 2.58984375 4.60546875 C2.09347412 3.93668701 1.59710449 3.26790527 1.08569336 2.57885742 C0 1 0 1 0 0 Z " fill="#E82706" transform="translate(217,104)"/>
<path d="M0 0 C14.89420391 0 14.89420391 0 19.4765625 3.4609375 C23.32596201 7.34981803 24.17073742 11.66691809 24.4375 16.9375 C24.24469675 22.96030626 22.35345852 27.78917533 17.9375 31.9375 C11.70229292 35.35680711 8.51815792 34 0 34 C0 22.78 0 11.56 0 0 Z " fill="#020100" transform="translate(169,123)"/>
</svg>
